<svg data-v-0c15fc4e="" xmlns="http://www.w3.org/2000/svg" xmlns:xlink="http://www.w3.org/1999/xlink" width="15.12" height="22.86" viewBox="0 0 15.12 22.86"><defs data-v-0c15fc4e=""><clipPath data-v-0c15fc4e="" id="a" transform="translate(-7.64 -3.77)"><rect data-v-0c15fc4e="" width="30.39" height="30.39" fill="none"></rect></clipPath></defs><path data-v-0c15fc4e="" d="M15.2,26.63c-2.65,0-7.56-7.87-7.56-15.3a7.56,7.56,0,0,1,15.12,0C22.76,18.76,17.84,26.63,15.2,26.63Zm0-21.86a6.56,6.56,0,0,0-6.56,6.56c0,7.18,4.82,14.3,6.56,14.3s6.56-7.12,6.56-14.3A6.57,6.57,0,0,0,15.2,4.77Z" transform="translate(-7.64 -3.77)" fill="#0079f2"></path><path data-v-0c15fc4e="" d="M15.2,16.64a5.4,5.4,0,1,1,5.4-5.4A5.41,5.41,0,0,1,15.2,16.64Zm0-9.8a4.4,4.4,0,1,0,4.4,4.4A4.4,4.4,0,0,0,15.2,6.84Z" transform="translate(-7.64 -3.77)" fill="#0079f2"></path></svg>