<svg data-v-6f1b17ad="" xmlns="http://www.w3.org/2000/svg" xmlns:xlink="http://www.w3.org/1999/xlink" width="26" height="17" viewBox="0 0 26 17"><defs data-v-6f1b17ad=""><clipPath data-v-6f1b17ad="" id="a" transform="translate(-2.2 -6.7)"><rect data-v-6f1b17ad="" width="30.39" height="30.39" fill="none"></rect></clipPath></defs> <path data-v-6f1b17ad="" d="M12.92,11a.49.49,0,0,1-.35-.15.51.51,0,0,1-.15-.35,3.8,3.8,0,0,1,3.8-3.79h8.14a3.79,3.79,0,0,1,3.79,3.79.5.5,0,0,1-.5.5Zm.55-1H27.11A2.8,2.8,0,0,0,24.36,7.7H16.22A2.8,2.8,0,0,0,13.47,10Z" transform="translate(-2.2 -6.7)" fill="#0079f2"></path><path data-v-6f1b17ad="" d="M17.46,23.7H2.7a.5.5,0,0,1-.5-.5A10.75,10.75,0,0,1,12.93,12.46h6.86v-2a.5.5,0,0,1,.5-.5.5.5,0,0,1,.5.5V13a.5.5,0,0,1-.5.5H12.93A9.75,9.75,0,0,0,3.21,22.7H17.46a.5.5,0,0,1,0,1Z" transform="translate(-2.2 -6.7)" fill="#0079f2"></path><path data-v-6f1b17ad="" d="M27.7,23.7H17.46a.5.5,0,0,1-.5-.5A10.75,10.75,0,0,1,27.7,12.46a.51.51,0,0,1,.5.5V23.2A.5.5,0,0,1,27.7,23.7ZM18,22.7H27.2V13.48A9.74,9.74,0,0,0,18,22.7Z" transform="translate(-2.2 -6.7)" fill="#0079f2"></path><path data-v-6f1b17ad="" d="M14.42,20.83H6.58a.51.51,0,0,1-.5-.5.5.5,0,0,1,.5-.5h7.84a.5.5,0,0,1,.5.5A.51.51,0,0,1,14.42,20.83Z" transform="translate(-2.2 -6.7)" fill="#0079f2"></path></svg>