<svg data-v-6f1b17ad="" xmlns="http://www.w3.org/2000/svg" xmlns:xlink="http://www.w3.org/1999/xlink" width="4.41" height="21.92" viewBox="0 0 4.41 21.92"><defs data-v-6f1b17ad=""><clipPath data-v-6f1b17ad="" id="a" transform="translate(-12.99 -4.24)"><rect data-v-6f1b17ad="" width="30.39" height="30.39" fill="none"></rect></clipPath></defs> <path data-v-6f1b17ad="" d="M15.2,26.16A2.12,2.12,0,0,1,13.08,24V12.69a2.12,2.12,0,1,1,4.23,0V24A2.12,2.12,0,0,1,15.2,26.16Zm0-14.59a1.12,1.12,0,0,0-1.12,1.12V24a1.12,1.12,0,1,0,2.23,0V12.69A1.12,1.12,0,0,0,15.2,11.57Z" transform="translate(-12.99 -4.24)" fill="#0079f2"></path><path data-v-6f1b17ad="" d="M15.2,8.65a2.21,2.21,0,1,1,2.2-2.21A2.21,2.21,0,0,1,15.2,8.65Zm0-3.41a1.21,1.21,0,1,0,1.2,1.2A1.21,1.21,0,0,0,15.2,5.24Z" transform="translate(-12.99 -4.24)" fill="#0079f2"></path></svg>