<svg data-v-6f1b17ad="" xmlns="http://www.w3.org/2000/svg" xmlns:xlink="http://www.w3.org/1999/xlink" width="23.22" height="21.04" viewBox="0 0 23.22 21.04"><defs data-v-6f1b17ad=""><clipPath data-v-6f1b17ad="" id="a" transform="translate(-3.59 -4.68)"><rect data-v-6f1b17ad="" width="30.39" height="30.39" fill="none"></rect></clipPath></defs> <path data-v-6f1b17ad="" d="M6.19,16.94a.51.51,0,0,1-.36-.15L3.73,14.7A.5.5,0,1,1,4.44,14l1.75,1.74L7.93,14a.5.5,0,1,1,.71.71l-2.1,2.09A.5.5,0,0,1,6.19,16.94Z" transform="translate(-3.59 -4.68)" fill="#0079f2"></path><path data-v-6f1b17ad="" d="M16.25,25.72a.5.5,0,0,1-.5-.5.5.5,0,0,1,.5-.5A9.52,9.52,0,1,0,6.69,15.2a.51.51,0,0,1-.5.5.5.5,0,0,1-.5-.5A10.56,10.56,0,1,1,16.25,25.72Z" transform="translate(-3.59 -4.68)" fill="#0079f2"></path><path data-v-6f1b17ad="" d="M19.43,20.11a.47.47,0,0,1-.35-.15l-3.81-3.79a.51.51,0,0,1-.15-.35V8.68a.5.5,0,0,1,.5-.5.5.5,0,0,1,.5.5v6.93l3.66,3.64a.5.5,0,0,1,0,.71A.47.47,0,0,1,19.43,20.11Z" transform="translate(-3.59 -4.68)" fill="#0079f2"></path></svg>