<svg data-v-6f1b17ad="" xmlns="http://www.w3.org/2000/svg" xmlns:xlink="http://www.w3.org/1999/xlink" width="24.59" height="16.43" viewBox="0 0 24.59 16.43"><defs data-v-6f1b17ad=""><clipPath data-v-6f1b17ad="" id="a" transform="translate(-2.9 -6.98)"><rect data-v-6f1b17ad="" width="30.39" height="30.39" fill="none"></rect></clipPath></defs> <path data-v-6f1b17ad="" d="M24.45,7H5.94a3.05,3.05,0,0,0-3,3V20.37a3,3,0,0,0,3,3H24.45a3,3,0,0,0,3-3V10A3,3,0,0,0,24.45,7ZM5.94,8H24.45a2,2,0,0,1,2,2v1.1H3.9V10A2,2,0,0,1,5.94,8ZM24.45,22.41H5.94a2,2,0,0,1-2-2V12.12H26.49v8.25A2,2,0,0,1,24.45,22.41Z" transform="translate(-2.9 -6.98)" fill="#0079f2"></path></svg>