<svg xmlns="http://www.w3.org/2000/svg" xmlns:xlink="http://www.w3.org/1999/xlink" width="23.13" height="23.06" viewBox="0 0 23.13 23.06"><defs><clipPath id="a" transform="translate(-1.44 -1.47)"><rect width="26" height="26" fill="none"/></clipPath></defs><g clip-path="url(#a)"><path d="M12.91,1.47A6.5,6.5,0,0,0,6.4,8a5.83,5.83,0,0,0,.06.84H5.59a3,3,0,0,0-3,3,1.48,1.48,0,0,0,0,.21,3,3,0,0,1,1.88-.66H21.53a3,3,0,0,1,1.72.53v-.08a3,3,0,0,0-3-3h-.87A5.83,5.83,0,0,0,19.42,8a6.5,6.5,0,0,0-6.51-6.51" transform="translate(-1.44 -1.47)" fill="#2f6cba"/><path d="M8.31,23.34a.69.69,0,1,1,0-1.38h9.2a.69.69,0,0,1,0,1.38H8.31M23.25,11.92a3,3,0,0,1-3,2.94H5.59a3,3,0,0,1-3-2.81,3,3,0,0,0,1.57,5.37L5.8,22a3.93,3.93,0,0,0,3.69,2.58h7A3.93,3.93,0,0,0,20.2,22l1.64-4.53a3,3,0,0,0,1.41-5.5" transform="translate(-1.44 -1.47)" fill="#a7cdff"/><path d="M21.53,11.39H4.46a3,3,0,0,0-1.88.66,3,3,0,0,0,3,2.81H20.23a3,3,0,0,0,3-2.94,3,3,0,0,0-1.72-.53" transform="translate(-1.44 -1.47)" fill="#1956a4"/><path d="M17.51,22H8.31a.69.69,0,1,0,0,1.38h9.2a.69.69,0,0,0,0-1.38" transform="translate(-1.44 -1.47)" fill="#fff"/></g></svg>