<svg xmlns="http://www.w3.org/2000/svg" xmlns:xlink="http://www.w3.org/1999/xlink" width="17.85" height="25" viewBox="0 0 17.85 25"><defs><clipPath id="a" transform="translate(-5.07 -0.5)"><rect width="26" height="26" fill="none"/></clipPath></defs><g clip-path="url(#a)"><path d="M13.64,3.12a1.45,1.45,0,0,1-.51.1H8a1.4,1.4,0,0,1-.51-.1l-1.06,2a12.22,12.22,0,0,0-1.4,5.69V23A2.53,2.53,0,0,0,7.6,25.5h6a2.51,2.51,0,0,0,1.64-.61,5.73,5.73,0,0,1-2.92-5.07c0-2.64,1.33-6.8,3.8-8v-1a12.1,12.1,0,0,0-1.4-5.69l-1-2" transform="translate(-5.07 -0.5)" fill="#63a0ee"/><path d="M13.13.5H8a1.36,1.36,0,0,0-.51,2.62l.33-.64A1.26,1.26,0,0,1,9,1.86h3.22a1.24,1.24,0,0,1,1.11.62l.34.64A1.36,1.36,0,0,0,13.13.5" transform="translate(-5.07 -0.5)" fill="#3e7bc9"/><path d="M12.19,1.86H9a1.26,1.26,0,0,0-1.11.62l-.33.64a1.4,1.4,0,0,0,.51.1h5.09a1.45,1.45,0,0,0,.51-.1l-.34-.64a1.24,1.24,0,0,0-1.11-.62" transform="translate(-5.07 -0.5)" fill="#205dab"/><path d="M17.61,11.4a3.41,3.41,0,0,0-1.52.37V23a2.51,2.51,0,0,1-.88,1.92,5,5,0,0,0,2.4.61,5.51,5.51,0,0,0,5.32-5.68c0-3.14-1.88-8.42-5.32-8.42" transform="translate(-5.07 -0.5)" fill="#b8d7ff"/><path d="M16.09,11.77c-2.47,1.25-3.8,5.41-3.8,8.05a5.73,5.73,0,0,0,2.92,5.07A2.51,2.51,0,0,0,16.09,23V11.77" transform="translate(-5.07 -0.5)" fill="#4885d3"/></g></svg>