<svg xmlns="http://www.w3.org/2000/svg" xmlns:xlink="http://www.w3.org/1999/xlink" width="11.92" height="23.57" viewBox="0 0 11.92 23.57"><defs><clipPath id="a" transform="translate(-7.04 -1.21)"><rect width="26" height="26" fill="none"/></clipPath></defs><g clip-path="url(#a)"><path d="M15.12,21.7h0a.24.24,0,0,1,0-.47h0a.24.24,0,0,1,.21.26.24.24,0,0,1-.24.21M8.77,18.83h0a.45.45,0,0,1,0-.9h.05a.45.45,0,0,1,0,.89m5.45-1h0a.47.47,0,0,1-.42-.52.47.47,0,0,1,.46-.42h0a.47.47,0,0,1,0,.94m-.46-5.36h-.09a.81.81,0,0,1-.72-.89.8.8,0,0,1,.8-.73h.09a.81.81,0,0,1,.72.89.8.8,0,0,1-.8.73M10,7.45h0A.24.24,0,0,1,10,7h0a.24.24,0,0,1,0,.47m6.53-3.3H9.43A2.39,2.39,0,0,0,7,6.54V22.39a2.4,2.4,0,0,0,2.39,2.4h7.14A2.4,2.4,0,0,0,19,22.39V6.54a2.39,2.39,0,0,0-2.39-2.39" transform="translate(-7.04 -1.21)" fill="#6ba8f6"/><path d="M11.63,3a.51.51,0,0,1-.5-.51.5.5,0,0,1,.5-.49h2.54a.49.49,0,0,1,.5.49.5.5,0,0,1-.5.51H11.63M15.1,1.21H10.79A1.36,1.36,0,0,0,9.43,2.57V4.15h7V2.57A1.36,1.36,0,0,0,15.1,1.21" transform="translate(-7.04 -1.21)" fill="#3e7bc9"/><path d="M8.76,17.93a.45.45,0,0,0,0,.9h0a.45.45,0,0,0,0-.89H8.76" transform="translate(-7.04 -1.21)" fill="#fff"/><path d="M13.75,10.83a.8.8,0,0,0-.8.73.81.81,0,0,0,.72.89h.09a.8.8,0,0,0,.8-.73.81.81,0,0,0-.72-.89h-.09" transform="translate(-7.04 -1.21)" fill="#fff"/><path d="M14.22,16.87a.47.47,0,0,0-.46.42.47.47,0,0,0,.42.52h0a.47.47,0,0,0,0-.94h0" transform="translate(-7.04 -1.21)" fill="#fff"/><path d="M15.13,21.23a.24.24,0,0,0,0,.47h0a.24.24,0,0,0,.24-.21.24.24,0,0,0-.21-.26h0" transform="translate(-7.04 -1.21)" fill="#fff"/><path d="M10,7a.24.24,0,0,0,0,.47h0a.24.24,0,0,0,0-.47h0" transform="translate(-7.04 -1.21)" fill="#fff"/><path d="M14.17,2H11.63a.5.5,0,0,0-.5.49.51.51,0,0,0,.5.51h2.54a.5.5,0,0,0,.5-.51.49.49,0,0,0-.5-.49" transform="translate(-7.04 -1.21)" fill="#fff"/></g></svg>