<svg xmlns="http://www.w3.org/2000/svg" xmlns:xlink="http://www.w3.org/1999/xlink" width="21.46" height="22.96" viewBox="0 0 21.46 22.96"><defs><clipPath id="a" transform="translate(-2.27 -1.52)"><rect width="26" height="26" fill="none"/></clipPath></defs><g clip-path="url(#a)"><path d="M13,13h0M5.25,5.38a1.88,1.88,0,0,0-1.64.94L2.55,8.14a1.88,1.88,0,0,0,.69,2.58L7.11,13,9.9,11.39a.56.56,0,0,1,.17-.09,1.33,1.33,0,0,1,0-.2V7.89L6.2,5.63a1.93,1.93,0,0,0-1-.25" transform="translate(-2.27 -1.52)" fill="#80b7ff"/><path d="M18.89,13,16.1,14.61a.56.56,0,0,1-.17.09c0,.07,0,.14,0,.2l0,3.21,3.88,2.25a1.84,1.84,0,0,0,.95.26,1.88,1.88,0,0,0,1.64-.94l1.06-1.82a1.88,1.88,0,0,0-.69-2.58L18.89,13M13,13h0" transform="translate(-2.27 -1.52)" fill="#80b7ff"/><path d="M13,16.39l-.17.1L10,18.09l0,4.48a1.89,1.89,0,0,0,1.89,1.9H14a1.89,1.89,0,0,0,1.89-1.89V18.11l-2.77-1.62-.16-.1M13,13h0" transform="translate(-2.27 -1.52)" fill="#63a0ee"/><path d="M13,13h0l.52.91A1.9,1.9,0,0,1,13,16.39l.16.1,2.77,1.62,0-3.21c0-.06,0-.13,0-.2a1.9,1.9,0,0,1-2.41-.79L13,13h0" transform="translate(-2.27 -1.52)" fill="#5390de"/><path d="M13,13h0M7.11,13,3.22,15.21a1.89,1.89,0,0,0-.7,2.58l1,1.82a1.91,1.91,0,0,0,1.65,1,1.83,1.83,0,0,0,.93-.25L10,18.09V14.88a1.34,1.34,0,0,1,0-.2,1.51,1.51,0,0,1-.18-.09L7.11,13" transform="translate(-2.27 -1.52)" fill="#63a0ee"/><path d="M10.07,11.3a.56.56,0,0,0-.17.09L7.11,13l2.77,1.61a1.51,1.51,0,0,0,.18.09A1.89,1.89,0,0,1,11.94,13h0a1.89,1.89,0,0,1-1.88-1.69" transform="translate(-2.27 -1.52)" fill="#5390de"/><path d="M13,13l-.53.91a1.88,1.88,0,0,1-2.41.77,1.34,1.34,0,0,0,0,.2v3.21l2.78-1.6.17-.1a1.9,1.9,0,0,1-.52-2.48L13,13h0" transform="translate(-2.27 -1.52)" fill="#3b78c6"/><path d="M11.94,13a1.89,1.89,0,0,0-1.88,1.68,1.88,1.88,0,0,0,2.41-.77L13,13H11.94" transform="translate(-2.27 -1.52)" fill="#3673c1"/><path d="M13,13l-.53.91A1.9,1.9,0,0,0,13,16.39a1.9,1.9,0,0,0,.53-2.48L13,13" transform="translate(-2.27 -1.52)" fill="#3673c1"/><path d="M13,13h0M12,1.52a1.89,1.89,0,0,0-1.89,1.89V7.89L12.85,9.5l.16.11.17-.1L16,7.91l0-4.48a1.89,1.89,0,0,0-1.89-1.9H12" transform="translate(-2.27 -1.52)" fill="#63a0ee"/><path d="M10.08,7.89V11.1a1.33,1.33,0,0,0,0,.2,1.9,1.9,0,0,1,2.41.79L13,13h0l-.52-.91A1.9,1.9,0,0,1,13,9.61l-.16-.11L10.08,7.89" transform="translate(-2.27 -1.52)" fill="#5390de"/><path d="M10.83,11.14a1.89,1.89,0,0,0-.76.16A1.89,1.89,0,0,0,12,13H13l-.52-.91a1.9,1.9,0,0,0-1.65-.95" transform="translate(-2.27 -1.52)" fill="#3673c1"/><path d="M13,13h0m7.79-7.57a1.86,1.86,0,0,0-.93.25L16,7.91v3.21a1.34,1.34,0,0,1,0,.2l.18.09L18.89,13l3.89-2.23a1.89,1.89,0,0,0,.7-2.58l-1-1.83a1.92,1.92,0,0,0-1.65-1" transform="translate(-2.27 -1.52)" fill="#63a0ee"/><path d="M15.94,11.32A1.89,1.89,0,0,1,14.06,13h0a1.9,1.9,0,0,1,1.88,1.7.56.56,0,0,0,.17-.09L18.89,13l-2.77-1.61-.18-.09" transform="translate(-2.27 -1.52)" fill="#5390de"/><path d="M13,13l.52.91a1.9,1.9,0,0,0,2.41.79A1.9,1.9,0,0,0,14.05,13H13" transform="translate(-2.27 -1.52)" fill="#3673c1"/><path d="M16,7.91l-2.78,1.6-.17.1a1.9,1.9,0,0,1,.52,2.48L13,13h0l.53-.91a1.89,1.89,0,0,1,1.64-.94,1.91,1.91,0,0,1,.77.17,1.34,1.34,0,0,0,0-.2V7.91" transform="translate(-2.27 -1.52)" fill="#3b78c6"/><path d="M13,9.61a1.9,1.9,0,0,0-.53,2.48L13,13l.53-.91A1.9,1.9,0,0,0,13,9.61" transform="translate(-2.27 -1.52)" fill="#3673c1"/><path d="M15.17,11.15a1.89,1.89,0,0,0-1.64.94L13,13h1.06a1.89,1.89,0,0,0,1.88-1.68,1.91,1.91,0,0,0-.77-.17" transform="translate(-2.27 -1.52)" fill="#3673c1"/></g></svg>