<svg xmlns="http://www.w3.org/2000/svg" xmlns:xlink="http://www.w3.org/1999/xlink" width="24.85" height="21.31" viewBox="0 0 24.85 21.31"><defs><clipPath id="a" transform="translate(-0.58 -2.34)"><rect width="26" height="26" fill="none"/></clipPath></defs><g clip-path="url(#a)"><path d="M14.8,2.34a5.42,5.42,0,0,0-2.8.74,2.9,2.9,0,0,1,1,3.06,10.34,10.34,0,0,1-4.58,6.1,10.21,10.21,0,0,0,.78,3.83c1.11,2.42,3.93,4.66,6.74,6.4a7.24,7.24,0,0,0,3.75,1.19c2.65,0,4.77-1.94,5.31-5.33s.68-6.86-.43-9.28a12.83,12.83,0,0,0-4.32-4.67,9.65,9.65,0,0,0-5.47-2" transform="translate(-0.58 -2.34)" fill="#afd1ff"/><path d="M10.23,2.47a2.94,2.94,0,0,0-.65.07l-.39.09A10.32,10.32,0,0,0,1.63,9.45l-1,3a1.26,1.26,0,0,0,1.19,1.65.75.75,0,0,0,.21,0l2.7-.44a10.52,10.52,0,0,0,3.7-1.38,21.19,21.19,0,0,1,.09-2.5c.31-3.29,1.6-5.57,3.47-6.66a2.89,2.89,0,0,0-1.77-.61" transform="translate(-0.58 -2.34)" fill="#64a1ef"/><path d="M12,3.08C10.13,4.17,8.84,6.45,8.53,9.74a21.19,21.19,0,0,0-.09,2.5A10.34,10.34,0,0,0,13,6.14a2.9,2.9,0,0,0-1-3.06" transform="translate(-0.58 -2.34)" fill="#417ecc"/></g></svg>