<svg xmlns="http://www.w3.org/2000/svg" xmlns:xlink="http://www.w3.org/1999/xlink" width="24.96" height="25.4" viewBox="0 0 24.96 25.4"><defs><clipPath id="a" transform="translate(-1.28 -0.84)"><rect width="27" height="27" fill="none"/></clipPath></defs><g clip-path="url(#a)"><path d="M25.44,20.7l-4.65,4.64a3.08,3.08,0,0,1-4,.31,3.57,3.57,0,0,1-1.83.51H4.91a3.64,3.64,0,0,1-3.63-3.64v-18A3.64,3.64,0,0,1,4.91.84H15a3.64,3.64,0,0,1,3.64,3.64V16.09h4.92A2.7,2.7,0,0,1,25.44,20.7Z" transform="translate(-1.28 -0.84)" fill="none"/><path d="M11.78,20.7a2.67,2.67,0,0,1-.37-3.35H4.12a.47.47,0,1,1,0-.94h8.29a2.67,2.67,0,0,1,1.28-.32h4.92V4.48A3.64,3.64,0,0,0,15,.84H4.91A3.64,3.64,0,0,0,1.28,4.48v18a3.64,3.64,0,0,0,3.63,3.64H15a3.57,3.57,0,0,0,1.83-.51,2.72,2.72,0,0,1-.38-.31Zm-7.66-11H15.9a.47.47,0,1,1,0,.94H4.12a.47.47,0,0,1,0-.94Zm0,3.25H15.9a.48.48,0,0,1,0,.95H4.12a.48.48,0,0,1,0-.95Z" transform="translate(-1.28 -0.84)" fill="#6ba8f6"/><path d="M4.12,10.59H15.9a.47.47,0,1,0,0-.94H4.12a.47.47,0,0,0,0,.94Z" transform="translate(-1.28 -0.84)" fill="#fff"/><path d="M4.12,13.85H15.9a.48.48,0,0,0,0-.95H4.12a.48.48,0,0,0,0,.95Z" transform="translate(-1.28 -0.84)" fill="#fff"/><path d="M3.65,16.88a.47.47,0,0,0,.47.47h7.29a2.59,2.59,0,0,1,1-.94H4.12A.47.47,0,0,0,3.65,16.88Z" transform="translate(-1.28 -0.84)" fill="#fff"/><path d="M23.53,16.09H18.61v6.43a3.62,3.62,0,0,1-1.81,3.13,3.08,3.08,0,0,0,4-.31l4.65-4.64A2.7,2.7,0,0,0,23.53,16.09Z" transform="translate(-1.28 -0.84)" fill="#2360ae"/><path d="M18.61,22.52V16.09H13.69a2.67,2.67,0,0,0-1.28.32H15.9a.47.47,0,0,1,0,.94H11.41a2.67,2.67,0,0,0,.37,3.35l4.64,4.64a2.72,2.72,0,0,0,.38.31A3.62,3.62,0,0,0,18.61,22.52Z" transform="translate(-1.28 -0.84)" fill="#0f4c9a"/><path d="M11.41,17.35H15.9a.47.47,0,0,0,0-.94H12.41A2.59,2.59,0,0,0,11.41,17.35Z" transform="translate(-1.28 -0.84)" fill="#2360ae"/></g></svg>