<svg xmlns="http://www.w3.org/2000/svg" xmlns:xlink="http://www.w3.org/1999/xlink" width="25" height="22.29" viewBox="0 0 25 22.29"><defs><clipPath id="a" transform="translate(-0.5 -1.85)"><rect width="26" height="26" fill="none"/></clipPath></defs><g clip-path="url(#a)"><path d="M13.12,4.72a1.12,1.12,0,0,0,0,1.59l.85.82a2.26,2.26,0,0,0,.48.35A24.89,24.89,0,0,1,16,5.36a11.6,11.6,0,0,0-1.89-1.6l-.13.11-.82.85" transform="translate(-0.5 -1.85)" fill="#f05"/><path d="M6.12,5.47A2.52,2.52,0,1,0,8.64,8,2.52,2.52,0,0,0,6.12,5.47" transform="translate(-0.5 -1.85)" fill="#fff"/><path d="M20.88,3.47h-.11a.75.75,0,0,0-.28.11l0,0a.69.69,0,0,0-.25.53.71.71,0,0,0,.15.44l.06.06.12.1a.73.73,0,0,0,.35.09H21a.71.71,0,0,0,.29-.14.69.69,0,0,0,.25-.53.73.73,0,0,0-.15-.44l0,0-.07-.06A.69.69,0,0,0,21,3.47h-.08" transform="translate(-0.5 -1.85)" fill="#fff"/><path d="M3.6,8h0A2.52,2.52,0,1,1,6.12,10.5,2.52,2.52,0,0,1,3.6,8M7.85,1.85v0A7.61,7.61,0,0,0,.5,9.48a5.76,5.76,0,0,0,1.91,3.8A7.7,7.7,0,0,1,4.64,20a3.6,3.6,0,0,0-.06.66,3.56,3.56,0,0,0,3.27,3.53,10.64,10.64,0,0,0,11.08-9.93c0-.4.07-.81.07-1.22,0,.41,0,.82-.07,1.22-.83.44-1.68.85-2.5,1.22l-.31.12v1.52a1.7,1.7,0,0,1-1.7,1.7h-.59A4.67,4.67,0,0,1,9.15,14.1v-.59a1.7,1.7,0,0,1,1.7-1.69h1.43a3,3,0,0,1,.14-.39,34.87,34.87,0,0,1,2.07-3.95A24.89,24.89,0,0,1,16,5.36a11.6,11.6,0,0,0-1.89-1.6A11.06,11.06,0,0,0,8.92,1.91a7.34,7.34,0,0,0-.81,0H7.85" transform="translate(-0.5 -1.85)" fill="#5f9cea"/><path d="M20.77,3.48H21a.69.69,0,0,1,.36.16l.07.06,0,0a.73.73,0,0,1,.15.44.69.69,0,0,1-.25.53.71.71,0,0,1-.29.14h-.15a.73.73,0,0,1-.35-.09l-.12-.1-.06-.06a.71.71,0,0,1-.15-.44.69.69,0,0,1,.25-.53l0,0a.75.75,0,0,1,.28-.11M20.72,2.4a4.79,4.79,0,0,0-3.4,1.41l-.06.06a2.3,2.3,0,0,1,0,3.19A11.07,11.07,0,0,1,19,13c0,.41,0,.82-.07,1.22a23,23,0,0,0,5-3.39,4.93,4.93,0,0,0,.68-6.49A4.81,4.81,0,0,0,20.72,2.4" transform="translate(-0.5 -1.85)" fill="#63a0ee"/><path d="M17.28,7.06h0l-.09.09-.2.16a2.26,2.26,0,0,1-1.28.45h-.12a2.25,2.25,0,0,1-1-.25l-.08,0a34.87,34.87,0,0,0-2.07,3.95,3,3,0,0,0-.14.39H10.85a1.7,1.7,0,0,0-1.7,1.69v.59a4.67,4.67,0,0,0,4.68,4.68h.59a1.7,1.7,0,0,0,1.7-1.7V15.56l.31-.12c.82-.37,1.67-.78,2.5-1.22,0-.4.07-.81.07-1.22a11.07,11.07,0,0,0-1.72-5.94" transform="translate(-0.5 -1.85)" fill="#0f4c9a"/><path d="M15.62,3.17a2.33,2.33,0,0,0-1.55.59A11.6,11.6,0,0,1,16,5.36a17.13,17.13,0,0,1,1.3-1.49l-.05-.07a2.32,2.32,0,0,0-1.59-.63" transform="translate(-0.5 -1.85)" fill="#6ba8f6"/><path d="M17.26,3.87h0A17.13,17.13,0,0,0,16,5.36a11.38,11.38,0,0,1,1.32,1.7,2.3,2.3,0,0,0,0-3.19" transform="translate(-0.5 -1.85)" fill="#4784d2"/><path d="M16,5.36h0a24.89,24.89,0,0,0-1.47,2.12l.08,0a2.25,2.25,0,0,0,1,.25h.12A2.26,2.26,0,0,0,17,7.32l.2-.16.09-.09h0A11.38,11.38,0,0,0,16,5.36" transform="translate(-0.5 -1.85)" fill="#2865b3"/></g></svg>