<svg xmlns="http://www.w3.org/2000/svg" xmlns:xlink="http://www.w3.org/1999/xlink" width="18.34" height="23" viewBox="0 0 18.34 23"><defs><clipPath id="a" transform="translate(-3.83 -1.5)"><rect width="26" height="26" fill="none"/></clipPath></defs><g clip-path="url(#a)"><path d="M14.24,24.29a1.43,1.43,0,0,1-.7.21h.05a1.07,1.07,0,0,0,.65-.21M20.71,6.18a1.11,1.11,0,0,0-.7.25l-4.55,3.68-.48.42a10.93,10.93,0,0,1,.78,5.67l-.9,7.11a1.47,1.47,0,0,1-.38.79l4.35-3.53a9,9,0,0,0,3.32-7.5l-.33-5.84a1.11,1.11,0,0,0-1.11-1.05" transform="translate(-3.83 -1.5)" fill="#64a1ef"/><path d="M14.48,24.1l-.2.15,0,0,.24-.19M6.18,1.5A1.35,1.35,0,0,0,4.83,2.69L3.92,9.8a11,11,0,0,0,3.41,9.45l5.25,4.88a1.29,1.29,0,0,0,.92.37h0a1.11,1.11,0,0,1-1.07-1.05l-.33-5.84A9,9,0,0,1,15,10.53a11,11,0,0,0-2.63-3.78L7.11,1.87a1.31,1.31,0,0,0-.93-.37" transform="translate(-3.83 -1.5)" fill="#63a0ee"/><path d="M15,10.53a9,9,0,0,0-2.84,7.08l.33,5.84a1.11,1.11,0,0,0,1.07,1.05,1.43,1.43,0,0,0,.7-.21l0,0,.2-.15a1.47,1.47,0,0,0,.38-.79l.9-7.11A10.93,10.93,0,0,0,15,10.53" transform="translate(-3.83 -1.5)" fill="#407dcb"/></g></svg>