<svg xmlns="http://www.w3.org/2000/svg" xmlns:xlink="http://www.w3.org/1999/xlink" width="22.76" height="22.76" viewBox="0 0 22.76 22.76"><defs><clipPath id="a" transform="translate(-1.62 -1.62)"><rect width="26" height="26" fill="none"/></clipPath></defs><g clip-path="url(#a)"><path d="M22.22,5.2a2.23,2.23,0,0,0-.92.21l-.74.35A3.92,3.92,0,0,1,14.5,8.83l-.14.09a3.92,3.92,0,0,1-5.44,5.44l-.09.14a3.92,3.92,0,0,1-3.07,6.06l-.35.74a2.17,2.17,0,0,0,2,3.08,2.23,2.23,0,0,0,.92-.21l4.21-2a20.12,20.12,0,0,0,9.72-9.73l2-4.2a2.17,2.17,0,0,0-2-3.08" transform="translate(-1.62 -1.62)" fill="#63a0ee"/><path d="M11.09,7.17A3.88,3.88,0,0,0,8.32,8.32a3.93,3.93,0,0,0,0,5.55h0a3.9,3.9,0,0,0,.6.49,20.4,20.4,0,0,1,5.44-5.44,3.91,3.91,0,0,0-3.27-1.75" transform="translate(-1.62 -1.62)" fill="#64a1ef"/><path d="M14.36,8.92a20.4,20.4,0,0,0-5.44,5.44,3.92,3.92,0,0,0,5.44-5.44" transform="translate(-1.62 -1.62)" fill="#407dcb"/><path d="M16.64,1.62a3.93,3.93,0,0,0-2.77,6.7,4.27,4.27,0,0,0,.63.51,21.2,21.2,0,0,1,2.6-1.46l3.46-1.61a3.92,3.92,0,0,0-3.92-4.14" transform="translate(-1.62 -1.62)" fill="#64a1ef"/><path d="M20.56,5.76,17.1,7.37a21.2,21.2,0,0,0-2.6,1.46,3.88,3.88,0,0,0,2.14.64,3.92,3.92,0,0,0,3.92-3.71" transform="translate(-1.62 -1.62)" fill="#407dcb"/><path d="M5.54,12.72a3.92,3.92,0,1,0,0,7.84h.22L7.38,17.1a20.57,20.57,0,0,1,1.45-2.6,3.35,3.35,0,0,0-.51-.63h0a3.91,3.91,0,0,0-2.78-1.15" transform="translate(-1.62 -1.62)" fill="#64a1ef"/><path d="M8.83,14.5a20.57,20.57,0,0,0-1.45,2.6L5.76,20.56A3.92,3.92,0,0,0,8.83,14.5" transform="translate(-1.62 -1.62)" fill="#407dcb"/></g></svg>