<svg xmlns="http://www.w3.org/2000/svg" xmlns:xlink="http://www.w3.org/1999/xlink" width="15.93" height="24.71" viewBox="0 0 15.93 24.71"><defs><clipPath id="a" transform="translate(-5.03 -0.65)"><rect width="26" height="26" fill="none"/></clipPath></defs><g clip-path="url(#a)"><path d="M19,14.87H7A1.94,1.94,0,0,0,5,16.8v.94A1.94,1.94,0,0,0,7,19.68H9.31a4,4,0,0,1,7.39,0H19A1.94,1.94,0,0,0,21,17.74V16.8A1.94,1.94,0,0,0,19,14.87" transform="translate(-5.03 -0.65)" fill="#5693e1"/><path d="M16.7,19.68H9.31A3.88,3.88,0,0,0,9,21.31a4,4,0,1,0,7.74-1.63" transform="translate(-5.03 -0.65)" fill="#2360ae"/><path d="M13,17.27a4,4,0,0,0-3.69,2.41H16.7A4,4,0,0,0,13,17.27" transform="translate(-5.03 -0.65)" fill="#0b4896"/><path d="M13,.65h-.1a5.94,5.94,0,0,0-5.76,6c0,3.24,3.53,4.81,3,8.16v0h5.72c-.71-3.37,3.21-5,3-8.37A5.86,5.86,0,0,0,13,.65" transform="translate(-5.03 -0.65)" fill="#afd1ff"/></g></svg>