<svg xmlns="http://www.w3.org/2000/svg" xmlns:xlink="http://www.w3.org/1999/xlink" width="24.32" height="23.72" viewBox="0 0 24.32 23.72"><defs><clipPath id="a" transform="translate(-0.84 -1.14)"><rect width="26" height="26" fill="none"/></clipPath></defs><g clip-path="url(#a)"><path d="M13,1.14a2.56,2.56,0,0,0-2.33,1.45L8.92,6.12A2.55,2.55,0,0,1,7,7.54l-3.9.57a2.6,2.6,0,0,0-1.44,4.43l2.82,2.75a2.63,2.63,0,0,1,.75,2.3l-.67,3.89A2.6,2.6,0,0,0,8.3,24.22l4.53-2.38.21-.12a3,3,0,0,1,.83-3.84L16.42,16a2.93,2.93,0,0,1,1.71-.56,3,3,0,0,1,2.19,1l.1-.07a2.2,2.2,0,0,0,.28-.24l3.67-3.58a2.6,2.6,0,0,0-1.44-4.43L19,7.54a2.58,2.58,0,0,1-2-1.42L15.33,2.59A2.56,2.56,0,0,0,13,1.14" transform="translate(-0.84 -1.14)" fill="#3e7bc9"/><path d="M20.32,16.43l-7.17,5.21-.11.08a2.91,2.91,0,0,0,1.19,1.14l3.15,1.66a3,3,0,0,0,1.36.34,2.94,2.94,0,0,0,2.9-3.44l-.6-3.5a2.94,2.94,0,0,0-.72-1.49" transform="translate(-0.84 -1.14)" fill="#6ba8f6"/><path d="M18.13,15.47a2.93,2.93,0,0,0-1.71.56l-2.55,1.85A3,3,0,0,0,13,21.72l.11-.08,7.17-5.21a3,3,0,0,0-2.19-1" transform="translate(-0.84 -1.14)" fill="#2865b3"/></g></svg>