<svg xmlns="http://www.w3.org/2000/svg" xmlns:xlink="http://www.w3.org/1999/xlink" width="16.55" height="23.38" viewBox="0 0 16.55 23.38"><defs><clipPath id="a" transform="translate(-4.72 -1.31)"><rect width="26" height="26" fill="none"/></clipPath></defs><g clip-path="url(#a)"><path d="M15.39,17.51a8.34,8.34,0,0,1-4.78,0v5.63a1.55,1.55,0,0,0,1.55,1.55h1.69a1.55,1.55,0,0,0,1.54-1.55V17.51" transform="translate(-4.72 -1.31)" fill="#5693e1"/><path d="M17.24,7.59a1.5,1.5,0,1,1,1.5-1.49,1.5,1.5,0,0,1-1.5,1.49M13,1.31a8.28,8.28,0,0,0-2.39,16.2V11.72a1.54,1.54,0,0,1,1.55-1.54h1.69a1.54,1.54,0,0,1,1.54,1.54v5.79A8.28,8.28,0,0,0,13,1.31" transform="translate(-4.72 -1.31)" fill="#2461af"/><path d="M13.85,10.18H12.16a1.54,1.54,0,0,0-1.55,1.54v5.79a8.34,8.34,0,0,0,4.78,0V11.72a1.54,1.54,0,0,0-1.54-1.54" transform="translate(-4.72 -1.31)" fill="#0c4997"/><path d="M17.24,4.6a1.5,1.5,0,1,0,1.5,1.5,1.5,1.5,0,0,0-1.5-1.5" transform="translate(-4.72 -1.31)" fill="#fff"/></g></svg>