<svg xmlns="http://www.w3.org/2000/svg" xmlns:xlink="http://www.w3.org/1999/xlink" width="23.13" height="23.06" viewBox="0 0 23.13 23.06"><defs><clipPath id="a" transform="translate(-1.44 -1.47)"><rect width="26" height="26" fill="none"/></clipPath></defs><g style="isolation:isolate"><g clip-path="url(#a)"><path d="M20.23,8.82h-.87A5.83,5.83,0,0,0,19.42,8a6.51,6.51,0,0,0-13,0,5.83,5.83,0,0,0,.06.84H5.59a3,3,0,0,0,0,6H20.23a3,3,0,0,0,0-6Z" transform="translate(-1.44 -1.47)" fill="#ff00c0"/><path d="M24.56,14.42a3,3,0,0,0-3-3H4.46a3,3,0,0,0-.3,6L5.8,22a3.93,3.93,0,0,0,3.69,2.58h7A3.93,3.93,0,0,0,20.2,22l1.64-4.53A3,3,0,0,0,24.56,14.42Z" transform="translate(-1.44 -1.47)" fill="#ffd000" style="mix-blend-mode:multiply"/><path d="M17.51,23.34H8.31a.69.69,0,1,1,0-1.38h9.2a.69.69,0,0,1,0,1.38Z" transform="translate(-1.44 -1.47)" fill="#fff"/></g></g></svg>