<svg xmlns="http://www.w3.org/2000/svg" xmlns:xlink="http://www.w3.org/1999/xlink" width="17.85" height="25" viewBox="0 0 17.85 25"><defs><clipPath id="a" transform="translate(-5.07 -0.5)"><rect width="26" height="26" fill="none"/></clipPath></defs><g style="isolation:isolate"><g clip-path="url(#a)"><path d="M14.69,5.09,13.3,2.49a1.23,1.23,0,0,0-1.11-.63H9a1.25,1.25,0,0,0-1.11.63L6.47,5.09a12.22,12.22,0,0,0-1.4,5.69V23A2.53,2.53,0,0,0,7.6,25.5h6A2.52,2.52,0,0,0,16.09,23V10.78A12.1,12.1,0,0,0,14.69,5.09Z" transform="translate(-5.07 -0.5)" fill="#28baff"/><rect x="1.61" width="7.81" height="2.72" rx="1.36" fill="#287bff" style="mix-blend-mode:multiply"/><path d="M22.93,19.82a5.51,5.51,0,0,1-5.32,5.68,5.51,5.51,0,0,1-5.32-5.68c0-3.14,1.88-8.42,5.32-8.42S22.93,16.68,22.93,19.82Z" transform="translate(-5.07 -0.5)" fill="#d2d2d2" style="mix-blend-mode:multiply"/></g></g></svg>