<svg xmlns="http://www.w3.org/2000/svg" xmlns:xlink="http://www.w3.org/1999/xlink" width="11.92" height="23.57" viewBox="0 0 11.92 23.57"><defs><clipPath id="a" transform="translate(-7.04 -1.22)"><rect width="26" height="26" fill="none"/></clipPath></defs><g style="isolation:isolate"><g clip-path="url(#a)"><rect y="2.93" width="11.92" height="20.64" rx="2.39" fill="#00dcff"/><path d="M3.75,0H8.05A1.36,1.36,0,0,1,9.41,1.36V2.93a0,0,0,0,1,0,0h-7a0,0,0,0,1,0,0V1.36A1.36,1.36,0,0,1,3.75,0Z" fill="#287bff" style="mix-blend-mode:multiply"/><circle cx="1.73" cy="17.17" r="0.45" fill="#fff"/><circle cx="6.71" cy="10.42" r="0.81" fill="#fff"/><circle cx="7.18" cy="16.12" r="0.47" fill="#fff"/><circle cx="8.08" cy="20.25" r="0.24" fill="#fff"/><circle cx="3" cy="6" r="0.24" fill="#fff"/><path d="M14.17,3H11.63a.51.51,0,0,1-.5-.5.5.5,0,0,1,.5-.5h2.54a.5.5,0,0,1,.5.5A.5.5,0,0,1,14.17,3Z" transform="translate(-7.04 -1.22)" fill="#fff"/></g></g></svg>