<svg xmlns="http://www.w3.org/2000/svg" xmlns:xlink="http://www.w3.org/1999/xlink" width="24.85" height="21.31" viewBox="0 0 24.85 21.31"><defs><clipPath id="a" transform="translate(-0.58 -2.34)"><rect width="26" height="26" fill="none"/></clipPath></defs><g style="isolation:isolate"><g clip-path="url(#a)"><path d="M24.6,9.05c1.1,2.42.94,6,.42,9.28-.78,4.9-4.85,6.75-9.06,4.14-2.81-1.74-5.63-4-6.74-6.4a12.84,12.84,0,0,1-.69-6.33C9.2,2.63,14.45.23,20.27,4.38A13,13,0,0,1,24.6,9.05Z" transform="translate(-0.58 -2.34)" fill="#f4dd00"/><path d="M9.58,2.54l-.39.08A10.35,10.35,0,0,0,1.63,9.45l-1,3A1.25,1.25,0,0,0,2,14.06l2.7-.44A10.33,10.33,0,0,0,13,6.14h0A2.9,2.9,0,0,0,9.58,2.54Z" transform="translate(-0.58 -2.34)" fill="#00e39a" style="mix-blend-mode:multiply"/></g></g></svg>