<svg xmlns="http://www.w3.org/2000/svg" xmlns:xlink="http://www.w3.org/1999/xlink" width="24.96" height="25.41" viewBox="0 0 24.96 25.41"><defs><clipPath id="a" transform="translate(-1.28 -0.84)"><rect width="27" height="27" fill="none"/></clipPath></defs><g style="isolation:isolate"><g clip-path="url(#a)"><g style="mix-blend-mode:multiply"><rect width="17.33" height="25.32" rx="3.64" fill="#00dcff"/></g><path d="M15.9,10.59H4.12a.47.47,0,0,1,0-.94H15.9a.47.47,0,1,1,0,.94Z" transform="translate(-1.28 -0.84)" fill="#fff"/><path d="M15.9,13.85H4.12a.47.47,0,0,1-.47-.47.48.48,0,0,1,.47-.48H15.9a.48.48,0,0,1,.47.48A.47.47,0,0,1,15.9,13.85Z" transform="translate(-1.28 -0.84)" fill="#fff"/><path d="M15.9,17.35H4.12a.47.47,0,1,1,0-.94H15.9a.47.47,0,0,1,0,.94Z" transform="translate(-1.28 -0.84)" fill="#fff"/><g style="mix-blend-mode:multiply"><path d="M25.44,20.7l-4.65,4.64a3.08,3.08,0,0,1-4.37,0L11.78,20.7a2.7,2.7,0,0,1,1.91-4.61h9.84A2.7,2.7,0,0,1,25.44,20.7Z" transform="translate(-1.28 -0.84)" fill="#ff5e7d"/></g></g></g></svg>