<svg xmlns="http://www.w3.org/2000/svg" xmlns:xlink="http://www.w3.org/1999/xlink" width="24.58" height="23.48" viewBox="0 0 24.58 23.48"><defs><clipPath id="a" transform="translate(-0.71 -1.26)"><rect width="26" height="26" fill="none"/></clipPath></defs><g style="isolation:isolate"><g clip-path="url(#a)"><path d="M20.33,11.4,14.87,6a2.65,2.65,0,0,0-3.74,0L5.67,11.4a2.67,2.67,0,0,0-.78,1.88v8.81a2.65,2.65,0,0,0,2.65,2.65H9.76a.46.46,0,0,0,.46-.46V19a1.41,1.41,0,0,1,1.41-1.41h2.74A1.41,1.41,0,0,1,15.78,19v5.32a.46.46,0,0,0,.46.46h2.22a2.65,2.65,0,0,0,2.65-2.65V13.28A2.67,2.67,0,0,0,20.33,11.4Z" transform="translate(-0.71 -1.26)" fill="#f05"/><path d="M24.7,12.12,21.11,8.53,14.44,1.86a2,2,0,0,0-2.88,0L4.89,8.53,1.3,12.12A2,2,0,0,0,1.3,15l.7.69a2,2,0,0,0,2.88.09l0,0,6.85-6.84a1.74,1.74,0,0,1,2.46,0l6.85,6.84,0,0a2.14,2.14,0,0,0,2.93-.14L24.7,15A2,2,0,0,0,24.7,12.12Z" transform="translate(-0.71 -1.26)" fill="#7161f6" style="mix-blend-mode:multiply"/></g></g></svg>