<svg xmlns="http://www.w3.org/2000/svg" xmlns:xlink="http://www.w3.org/1999/xlink" width="25" height="22.3" viewBox="0 0 25 22.3"><defs><clipPath id="a" transform="translate(-0.5 -1.85)"><rect width="26" height="26" fill="none"/></clipPath></defs><g style="isolation:isolate"><g clip-path="url(#a)"><path d="M6.12,5.47A2.52,2.52,0,1,0,8.63,8,2.52,2.52,0,0,0,6.12,5.47Z" transform="translate(-0.5 -1.85)" fill="#fff"/><path d="M20.45,3.62a.7.7,0,0,0-.1,1,.69.69,0,0,0,1,.1.69.69,0,0,0,.1-1A.7.7,0,0,0,20.45,3.62Z" transform="translate(-0.5 -1.85)" fill="#fff"/><path d="M13.12,4.72a1.13,1.13,0,0,0,0,1.59l.86.82a2,2,0,0,0,.48.35C15,6.75,15.44,6,16,5.36a11.6,11.6,0,0,0-1.89-1.6l-.13.11Z" transform="translate(-0.5 -1.85)" fill="#f05"/><path d="M17.28,7.06h0a2.3,2.3,0,0,1-2.78.41C15,6.75,15.44,6,16,5.36a11.6,11.6,0,0,0-1.89-1.6A11.1,11.1,0,0,0,8.92,1.91a7.34,7.34,0,0,0-.81,0H7.85v0A7.61,7.61,0,0,0,.5,9.48a5.8,5.8,0,0,0,1.9,3.8A7.68,7.68,0,0,1,4.64,20a3.6,3.6,0,0,0-.06.66,3.56,3.56,0,0,0,3.27,3.53,10.64,10.64,0,0,0,11.08-9.93c0-.4.07-.81.07-1.22A11,11,0,0,0,17.28,7.06ZM6.12,10.5A2.52,2.52,0,1,1,8.63,8,2.51,2.51,0,0,1,6.12,10.5Z" transform="translate(-0.5 -1.85)" fill="#ff5e7d"/><path d="M16,5.36c-.52.67-1,1.39-1.47,2.12a2.3,2.3,0,0,0,2.78-.41h0A11.38,11.38,0,0,0,16,5.36Z" transform="translate(-0.5 -1.85)" fill="#287bff"/><path d="M24.58,4.34a4.81,4.81,0,0,0-7.26-.53l-.06.06A18.74,18.74,0,0,0,16,5.36a11.38,11.38,0,0,1,1.32,1.7A11,11,0,0,1,19,13c0,.41,0,.82-.07,1.22a23,23,0,0,0,5-3.39A4.93,4.93,0,0,0,24.58,4.34Zm-3.26.35a.69.69,0,0,1-1-.1.7.7,0,0,1,.1-1,.7.7,0,0,1,1,.1A.69.69,0,0,1,21.32,4.69Z" transform="translate(-0.5 -1.85)" fill="#28baff"/><path d="M17.28,7.06h0a2.3,2.3,0,0,1-2.78.41,34,34,0,0,0-2.07,3.95,2,2,0,0,0-.14.39H10.85a1.7,1.7,0,0,0-1.7,1.69v.59a4.67,4.67,0,0,0,4.68,4.68h.59a1.7,1.7,0,0,0,1.7-1.7V15.56l.31-.12c.82-.37,1.67-.78,2.5-1.22,0-.4.07-.81.07-1.22A11,11,0,0,0,17.28,7.06Z" transform="translate(-0.5 -1.85)" fill="#28baff" style="mix-blend-mode:multiply"/><path d="M17.26,3.87l-.05-.07a2.31,2.31,0,0,0-3.14,0A11.6,11.6,0,0,1,16,5.36,18.74,18.74,0,0,1,17.26,3.87Z" transform="translate(-0.5 -1.85)" fill="#00dcff" style="mix-blend-mode:multiply"/><path d="M17.28,7.06a2.3,2.3,0,0,0,0-3.19A18.74,18.74,0,0,0,16,5.36,11.38,11.38,0,0,1,17.28,7.06Z" transform="translate(-0.5 -1.85)" fill="#00dcff" style="mix-blend-mode:multiply"/><path d="M16,5.36c-.52.67-1,1.39-1.47,2.12a2.3,2.3,0,0,0,2.78-.41h0A11.38,11.38,0,0,0,16,5.36Z" transform="translate(-0.5 -1.85)" fill="#00dcff" style="mix-blend-mode:multiply"/></g></g></svg>