<svg xmlns="http://www.w3.org/2000/svg" xmlns:xlink="http://www.w3.org/1999/xlink" width="18.34" height="23" viewBox="0 0 18.34 23"><defs><clipPath id="a" transform="translate(-3.83 -1.5)"><rect width="26" height="26" fill="none"/></clipPath></defs><g style="isolation:isolate"><g clip-path="url(#a)"><path d="M14.28,24.25l4.55-3.68a9,9,0,0,0,3.32-7.5l-.33-5.84A1.11,1.11,0,0,0,20,6.43l-4.55,3.68a9,9,0,0,0-3.32,7.5l.33,5.84A1.11,1.11,0,0,0,14.28,24.25Z" transform="translate(-3.83 -1.5)" fill="#00e39a"/><path d="M14.86,23.31l.9-7.11a11,11,0,0,0-3.41-9.45L7.11,1.87a1.36,1.36,0,0,0-2.28.82L3.92,9.8a11,11,0,0,0,3.41,9.45l5.24,4.88A1.37,1.37,0,0,0,14.86,23.31Z" transform="translate(-3.83 -1.5)" fill="#28baff" style="mix-blend-mode:multiply"/></g></g></svg>