<svg xmlns="http://www.w3.org/2000/svg" xmlns:xlink="http://www.w3.org/1999/xlink" width="14.54" height="23.65" viewBox="0 0 14.54 23.65"><defs><clipPath id="a" transform="translate(-5.73 -1.18)"><rect width="26" height="26" fill="none"/></clipPath></defs><g style="isolation:isolate"><g clip-path="url(#a)"><path d="M18.75,21.57a2.16,2.16,0,0,1,.8-1.68.6.6,0,0,0,0-.94,2.16,2.16,0,0,1-.8-1.68,2.12,2.12,0,0,1,.8-1.67.61.61,0,0,0,0-.95,2.15,2.15,0,0,1,0-3.35.61.61,0,0,0,0-1,2.12,2.12,0,0,1-.8-1.67A2.16,2.16,0,0,1,19.55,7a.6.6,0,0,0,0-.94,2.16,2.16,0,0,1-.8-1.68,2.13,2.13,0,0,1,1.46-2,1.14,1.14,0,0,0-.52-.13H10.75A1.21,1.21,0,0,0,9.54,3.44V22.56a1.21,1.21,0,0,0,1.21,1.21h8.94a1.15,1.15,0,0,0,.58-.16A2.14,2.14,0,0,1,18.75,21.57Z" transform="translate(-5.73 -1.18)" fill="#d2d2d2"/><g style="mix-blend-mode:multiply"><rect width="7.29" height="23.65" rx="1.28" fill="#b15eff"/></g></g></g></svg>