<svg xmlns="http://www.w3.org/2000/svg" xmlns:xlink="http://www.w3.org/1999/xlink" width="24.32" height="23.72" viewBox="0 0 24.32 23.72"><defs><clipPath id="a" transform="translate(-0.84 -1.14)"><rect width="26" height="26" fill="none"/></clipPath></defs><g style="isolation:isolate"><g clip-path="url(#a)"><path d="M22.93,8.11,19,7.54a2.58,2.58,0,0,1-2-1.42L15.33,2.59a2.6,2.6,0,0,0-4.66,0L8.93,6.12A2.58,2.58,0,0,1,7,7.54l-3.9.57a2.6,2.6,0,0,0-1.44,4.43L4.45,15.3a2.6,2.6,0,0,1,.75,2.29l-.67,3.89A2.6,2.6,0,0,0,8.3,24.22l4.53-2.38.32-.2,7.27-5.28a3.36,3.36,0,0,0,.29-.24l3.66-3.58A2.6,2.6,0,0,0,22.93,8.11Z" transform="translate(-0.84 -1.14)" fill="#287bff"/><path d="M16.42,16l-2.55,1.85a2.94,2.94,0,0,0,.36,5l3.15,1.66a2.94,2.94,0,0,0,4.26-3.1l-.6-3.5A2.94,2.94,0,0,0,16.42,16Z" transform="translate(-0.84 -1.14)" fill="#00dcff" style="mix-blend-mode:multiply"/></g></g></svg>