<svg data-v-19c2d99e="" xmlns="http://www.w3.org/2000/svg" width="21" height="30.01" viewBox="0 0 21 30.01" class="stroke-width-1"><rect data-v-19c2d99e="" x="0.5" y="9.51" width="20" height="20" rx="3.05" fill="none" stroke="#0079f2" stroke-miterlimit="10"></rect><path data-v-19c2d99e="" d="M16.27,9.17V6.27A5.77,5.77,0,0,0,10.5.5h0A5.77,5.77,0,0,0,4.73,6.27h0v2.9" fill="none" stroke="#0079f2" stroke-miterlimit="10"></path><path data-v-19c2d99e="" d="M13.47,17.12a3,3,0,1,0-4,2.77v3.92a1,1,0,0,0,1.05,1.05h0a1,1,0,0,0,1.05-1.05h0V19.89A3,3,0,0,0,13.47,17.12Z" fill="none" stroke="#0079f2" stroke-miterlimit="10"></path></svg>