<svg data-v-91686126="" xmlns="http://www.w3.org/2000/svg" xmlns:xlink="http://www.w3.org/1999/xlink" width="25.47" height="14.73" viewBox="0 0 25.47 14.73" class="stroke-width-1"><defs data-v-91686126=""><clipPath data-v-91686126="" id="a" transform="translate(-1.7 -7.07)"><rect data-v-91686126="" width="28.87" height="28.87" fill="none"></rect></clipPath></defs><path data-v-91686126="" d="M11.07,11.07A16.46,16.46,0,0,0,2.2,17" transform="translate(-1.7 -7.07)" fill="none" stroke="#0079f2" stroke-linecap="round" stroke-linejoin="round"></path><path data-v-91686126="" d="M11.77,11.77a3.73,3.73,0,0,0-1.12,2.67A3.77,3.77,0,0,0,17.1,17.1" transform="translate(-1.7 -7.07)" fill="none" stroke="#0079f2" stroke-linecap="round" stroke-linejoin="round"></path><line data-v-91686126="" x1="19.6" y1="14.23" x2="5.87" y2="0.5" fill="none" stroke="#0079f2" stroke-linecap="round" stroke-linejoin="round"></line><path data-v-91686126="" d="M18.07,15.41a3.45,3.45,0,0,0,.15-1,3.79,3.79,0,0,0-3.79-3.79,3.45,3.45,0,0,0-1,.15" transform="translate(-1.7 -7.07)" fill="none" stroke="#0079f2" stroke-linecap="round" stroke-linejoin="round"></path><path data-v-91686126="" d="M26.67,17c-3.65-4.59-8.52-6.69-13.3-6.32" transform="translate(-1.7 -7.07)" fill="none" stroke="#0079f2" stroke-linecap="round" stroke-linejoin="round"></path></svg>